<?xml version="1.0" encoding="UTF-8"?>
<svg width="600" height="400" viewBox="0 0 600 400" fill="none" xmlns="http://www.w3.org/2000/svg">
  <!-- Person on pencil -->
  <path d="M300 100C350 50 400 150 350 200C300 250 250 150 300 100Z" fill="#6366F1"/>
  <path d="M250 250L450 50" stroke="#4B5563" strokeWidth="20" strokeLinecap="round"/>
  <!-- Stars -->
  <path d="M150 100L170 120L190 100L170 80L150 100Z" fill="#FBBF24"/>
  <path d="M450 300L470 320L490 300L470 280L450 300Z" fill="#FBBF24"/>
  <path d="M100 250L120 270L140 250L120 230L100 250Z" fill="#FBBF24"/>
  <!-- Cloud -->
  <path d="M400 150C450 150 450 200 400 200C350 200 350 150 400 150Z" fill="#E5E7EB"/>
</svg> 